# Blender 3.6.1
# www.blender.org
mtllib Little.mtl.mtl
o Text.001
v 1.892589 0.387755 0.070000
v 1.892589 0.149302 0.070000
v 1.995704 0.149302 0.070000
v 2.145005 -0.000000 0.070000
v 1.888292 -0.000000 0.070000
v 1.735768 0.153598 0.070000
v 1.735768 0.383459 0.070000
v 1.888292 0.537057 0.070000
v 2.110634 0.537057 0.070000
v 2.263158 0.383459 0.070000
v 2.263158 0.268528 0.070000
v 2.125671 0.129968 0.070000
v 1.987111 0.268528 0.070000
v 2.106337 0.268528 0.070000
v 2.106337 0.387755 0.070000
v 1.491944 0.764769 0.070000
v 1.649839 0.764769 0.070000
v 1.649839 -0.004296 0.070000
v 1.491944 0.152524 0.070000
v 1.266380 0.535983 0.070000
v 1.278196 0.535983 0.070000
v 1.427497 0.386681 0.070000
v 1.266380 0.386681 0.070000
v 1.266380 -0.004296 0.070000
v 1.109560 0.152524 0.070000
v 1.109560 0.386681 0.070000
v 1.107411 0.386681 0.070000
v 1.095596 0.386681 0.070000
v 0.946294 0.535983 0.070000
v 1.109560 0.535983 0.070000
v 1.109560 0.764769 0.070000
v 1.266380 0.764769 0.070000
v 0.785177 0.535983 0.070000
v 0.796992 0.535983 0.070000
v 0.946294 0.386681 0.070000
v 0.785177 0.386681 0.070000
v 0.785177 -0.004296 0.070000
v 0.628357 0.152524 0.070000
v 0.628357 0.386681 0.070000
v 0.626208 0.386681 0.070000
v 0.614393 0.386681 0.070000
v 0.465091 0.535983 0.070000
v 0.628357 0.535983 0.070000
v 0.628357 0.764769 0.070000
v 0.785177 0.764769 0.070000
v 0.443609 0.607948 0.070000
v 0.286788 0.764769 0.070000
v 0.443609 0.764769 0.070000
v 0.286788 0.535983 0.070000
v 0.443609 0.535983 0.070000
v 0.443609 -0.004296 0.070000
v 0.286788 0.152524 0.070000
v 0.042965 0.764769 0.070000
v 0.200859 0.764769 0.070000
v 0.200859 -0.004296 0.070000
v 0.042965 0.152524 0.070000
v 1.892589 0.387755 -0.070000
v 1.892589 0.149302 -0.070000
v 1.995704 0.149302 -0.070000
v 2.145005 0.000000 -0.070000
v 1.888292 0.000000 -0.070000
v 1.735768 0.153598 -0.070000
v 1.735768 0.383459 -0.070000
v 1.888292 0.537057 -0.070000
v 2.110634 0.537057 -0.070000
v 2.263158 0.383459 -0.070000
v 2.263158 0.268528 -0.070000
v 2.125671 0.129968 -0.070000
v 1.987111 0.268528 -0.070000
v 2.106337 0.268528 -0.070000
v 2.106337 0.387755 -0.070000
v 1.491944 0.764769 -0.070000
v 1.649839 0.764769 -0.070000
v 1.649839 -0.004296 -0.070000
v 1.491944 0.152524 -0.070000
v 1.266380 0.535983 -0.070000
v 1.278196 0.535983 -0.070000
v 1.427497 0.386681 -0.070000
v 1.266380 0.386681 -0.070000
v 1.266380 -0.004296 -0.070000
v 1.109560 0.152524 -0.070000
v 1.109560 0.386681 -0.070000
v 1.107411 0.386681 -0.070000
v 1.095596 0.386681 -0.070000
v 0.946294 0.535983 -0.070000
v 1.109560 0.535983 -0.070000
v 1.109560 0.764769 -0.070000
v 1.266380 0.764769 -0.070000
v 0.785177 0.535983 -0.070000
v 0.796992 0.535983 -0.070000
v 0.946294 0.386681 -0.070000
v 0.785177 0.386681 -0.070000
v 0.785177 -0.004296 -0.070000
v 0.628357 0.152524 -0.070000
v 0.628357 0.386681 -0.070000
v 0.626208 0.386681 -0.070000
v 0.614393 0.386681 -0.070000
v 0.465091 0.535983 -0.070000
v 0.628357 0.535983 -0.070000
v 0.628357 0.764769 -0.070000
v 0.785177 0.764769 -0.070000
v 0.443609 0.607948 -0.070000
v 0.286788 0.764769 -0.070000
v 0.443609 0.764769 -0.070000
v 0.286788 0.535983 -0.070000
v 0.443609 0.535983 -0.070000
v 0.443609 -0.004296 -0.070000
v 0.286788 0.152524 -0.070000
v 0.042965 0.764769 -0.070000
v 0.200859 0.764769 -0.070000
v 0.200859 -0.004296 -0.070000
v 0.042965 0.152524 -0.070000
v 0.042965 0.764769 -0.070000
v 0.042965 0.764769 0.070000
v 0.200859 0.764769 -0.070000
v 0.200859 0.764769 0.070000
v 0.200859 -0.004296 -0.070000
v 0.200859 -0.004296 0.070000
v 0.042965 0.152524 -0.070000
v 0.042965 0.152524 0.070000
v 0.443609 0.607948 -0.070000
v 0.443609 0.607948 0.070000
v 0.286788 0.764769 -0.070000
v 0.286788 0.764769 0.070000
v 0.443609 0.764769 -0.070000
v 0.443609 0.764769 0.070000
v 0.286788 0.535983 -0.070000
v 0.286788 0.535983 0.070000
v 0.443609 0.535983 -0.070000
v 0.443609 0.535983 0.070000
v 0.443609 -0.004296 -0.070000
v 0.443609 -0.004296 0.070000
v 0.286788 0.152524 -0.070000
v 0.286788 0.152524 0.070000
v 0.785177 0.535983 -0.070000
v 0.785177 0.535983 0.070000
v 0.796992 0.535983 -0.070000
v 0.796992 0.535983 0.070000
v 0.946294 0.386681 -0.070000
v 0.946294 0.386681 0.070000
v 0.785177 0.386681 -0.070000
v 0.785177 0.386681 0.070000
v 0.785177 -0.004296 -0.070000
v 0.785177 -0.004296 0.070000
v 0.628357 0.152524 -0.070000
v 0.628357 0.152524 0.070000
v 0.628357 0.386681 -0.070000
v 0.628357 0.386681 0.070000
v 0.626208 0.386681 -0.070000
v 0.626208 0.386681 0.070000
v 0.614393 0.386681 -0.070000
v 0.614393 0.386681 0.070000
v 0.465091 0.535983 -0.070000
v 0.465091 0.535983 0.070000
v 0.628357 0.535983 -0.070000
v 0.628357 0.535983 0.070000
v 0.628357 0.764769 -0.070000
v 0.628357 0.764769 0.070000
v 0.785177 0.764769 -0.070000
v 0.785177 0.764769 0.070000
v 1.266380 0.535983 -0.070000
v 1.266380 0.535983 0.070000
v 1.278196 0.535983 -0.070000
v 1.278196 0.535983 0.070000
v 1.427497 0.386681 -0.070000
v 1.427497 0.386681 0.070000
v 1.266380 0.386681 -0.070000
v 1.266380 0.386681 0.070000
v 1.266380 -0.004296 -0.070000
v 1.266380 -0.004296 0.070000
v 1.109560 0.152524 -0.070000
v 1.109560 0.152524 0.070000
v 1.109560 0.386681 -0.070000
v 1.109560 0.386681 0.070000
v 1.107411 0.386681 -0.070000
v 1.107411 0.386681 0.070000
v 1.095596 0.386681 -0.070000
v 1.095596 0.386681 0.070000
v 0.946294 0.535983 -0.070000
v 0.946294 0.535983 0.070000
v 1.109560 0.535983 -0.070000
v 1.109560 0.535983 0.070000
v 1.109560 0.764769 -0.070000
v 1.109560 0.764769 0.070000
v 1.266380 0.764769 -0.070000
v 1.266380 0.764769 0.070000
v 1.491944 0.764769 -0.070000
v 1.491944 0.764769 0.070000
v 1.649839 0.764769 -0.070000
v 1.649839 0.764769 0.070000
v 1.649839 -0.004296 -0.070000
v 1.649839 -0.004296 0.070000
v 1.491944 0.152524 -0.070000
v 1.491944 0.152524 0.070000
v 1.892589 0.387755 -0.070000
v 1.892589 0.387755 0.070000
v 1.892589 0.149302 -0.070000
v 1.892589 0.149302 0.070000
v 1.995704 0.149302 -0.070000
v 1.995704 0.149302 0.070000
v 2.145005 0.000000 -0.070000
v 2.145005 -0.000000 0.070000
v 1.888292 0.000000 -0.070000
v 1.888292 -0.000000 0.070000
v 1.735768 0.153598 -0.070000
v 1.735768 0.153598 0.070000
v 1.735768 0.383459 -0.070000
v 1.735768 0.383459 0.070000
v 1.888292 0.537057 -0.070000
v 1.888292 0.537057 0.070000
v 2.110634 0.537057 -0.070000
v 2.110634 0.537057 0.070000
v 2.263158 0.383459 -0.070000
v 2.263158 0.383459 0.070000
v 2.263158 0.268528 -0.070000
v 2.263158 0.268528 0.070000
v 2.125671 0.129968 -0.070000
v 2.125671 0.129968 0.070000
v 1.987111 0.268528 -0.070000
v 1.987111 0.268528 0.070000
v 2.106337 0.268528 -0.070000
v 2.106337 0.268528 0.070000
v 2.106337 0.387755 -0.070000
v 2.106337 0.387755 0.070000
vn -0.0000 -0.0000 1.0000
vn -0.0000 -0.0000 -1.0000
vn -0.7071 0.7071 -0.0000
vn 0.7071 0.7071 -0.0000
vn 0.3843 -0.9232 -0.0000
vn -0.9232 -0.3843 -0.0000
vn 0.3827 -0.9239 -0.0000
vn -0.9239 0.3827 -0.0000
vn -0.9239 -0.3827 -0.0000
vn 0.3827 0.9239 -0.0000
vn 0.9239 -0.3827 -0.0000
vn 0.7071 -0.7071 -0.0000
vn -0.7071 -0.7071 -0.0000
vn -0.0000 -1.0000 -0.0000
vn -0.3827 -0.9239 -0.0000
vn -0.3843 -0.9232 -0.0000
vn -0.9245 -0.3811 -0.0000
vn -0.9245 0.3811 -0.0000
vn -0.3843 0.9232 -0.0000
vn 0.3843 0.9232 -0.0000
vn 0.9245 0.3811 -0.0000
vn 0.9246 -0.3809 -0.0000
vn 0.0019 -1.0000 -0.0000
vt 0.637758 0.492282
vt 0.741170 0.534655
vt 0.679834 0.534655
vt 0.681020 0.493468
vt 0.739985 0.493468
vt 0.783246 0.492282
vt 0.637758 0.428872
vt 0.681020 0.427687
vt 0.745319 0.422353
vt 0.739985 0.460577
vt 0.707095 0.460577
vt 0.783246 0.460577
vt 0.679834 0.386500
vt 0.709465 0.427687
vt 0.750652 0.386500
vt 0.570496 0.428576
vt 0.614053 0.597473
vt 0.570496 0.597473
vt 0.614053 0.385314
vt 0.332262 0.534359
vt 0.375524 0.534359
vt 0.375524 0.597473
vt 0.332262 0.597473
vt 0.461157 0.493171
vt 0.465009 0.534359
vt 0.419970 0.534359
vt 0.508271 0.534359
vt 0.511530 0.534359
vt 0.552717 0.493171
vt 0.464417 0.493171
vt 0.465009 0.493171
vt 0.465009 0.428576
vt 0.508271 0.493171
vt 0.508271 0.385314
vt 0.328410 0.493171
vt 0.287223 0.534359
vt 0.378783 0.534359
vt 0.419970 0.493171
vt 0.331670 0.493171
vt 0.332262 0.493171
vt 0.332262 0.428576
vt 0.375524 0.493171
vt 0.375524 0.385314
vt 0.238036 0.428576
vt 0.281297 0.534359
vt 0.238036 0.534359
vt 0.281297 0.385314
vt 0.281297 0.554211
vt 0.281297 0.597473
vt 0.238036 0.597473
vt 0.170773 0.428576
vt 0.214331 0.597473
vt 0.170773 0.597473
vt 0.214331 0.385314
vt 0.508271 0.597473
vt 0.465009 0.597473
vt 0.170773 0.513078
vt 0.214331 0.513078
vt 0.214331 0.474457
vt 0.170773 0.474457
vt 0.587057 0.513078
vt 0.374899 0.513078
vt 0.374899 0.474457
vt 0.587057 0.474457
vt 0.418160 0.513078
vt 0.418160 0.474457
vt 0.281297 0.513078
vt 0.238036 0.513078
vt 0.238036 0.474457
vt 0.281297 0.474457
vt 0.543796 0.513078
vt 0.543796 0.474457
vt 0.523943 0.513078
vt 0.523943 0.474457
vt 0.375524 0.513078
vt 0.378783 0.513078
vt 0.378783 0.474457
vt 0.375524 0.474457
vt 0.482756 0.513078
vt 0.482756 0.474457
vt 0.419970 0.513078
vt 0.419970 0.474457
vt 0.332262 0.513078
vt 0.332262 0.474457
vt 0.331670 0.513078
vt 0.331670 0.474457
vt 0.328410 0.513078
vt 0.328410 0.474457
vt 0.287223 0.513078
vt 0.287223 0.474457
vt 0.508271 0.513078
vt 0.511530 0.513078
vt 0.511530 0.474457
vt 0.508271 0.474457
vt 0.552717 0.513078
vt 0.552717 0.474457
vt 0.465009 0.513078
vt 0.465009 0.474457
vt 0.464417 0.513078
vt 0.464417 0.474457
vt 0.461157 0.513078
vt 0.461157 0.474457
vt 0.570496 0.513078
vt 0.614053 0.513078
vt 0.614053 0.474457
vt 0.570496 0.474457
vt 0.483052 0.513078
vt 0.417271 0.513078
vt 0.417271 0.474457
vt 0.483052 0.474457
vt 0.681020 0.513078
vt 0.709465 0.513078
vt 0.709465 0.474457
vt 0.681020 0.474457
vt 0.750652 0.513078
vt 0.750652 0.474457
vt 0.679834 0.513078
vt 0.679834 0.474457
vt 0.376084 0.513078
vt 0.418456 0.513078
vt 0.418456 0.474457
vt 0.376084 0.474457
vt 0.481867 0.513078
vt 0.481867 0.474457
vt 0.524239 0.513078
vt 0.524239 0.474457
vt 0.741170 0.513078
vt 0.741170 0.474457
vt 0.450161 0.513078
vt 0.450161 0.474457
vt 0.411937 0.513078
vt 0.411937 0.474457
vt 0.707095 0.513078
vt 0.739985 0.513078
vt 0.739985 0.474457
vt 0.707095 0.474457
s 0
usemtl Red_Leather
f 7/1/1 9/2/1 8/3/1
f 7/1/1 1/4/1 9/2/1
f 1/4/1 15/5/1 9/2/1
f 15/5/1 10/6/1 9/2/1
f 62/7/2 63/1/2 57/4/2 58/8/2
f 12/9/1 14/10/1 13/11/1
f 12/9/1 11/12/1 14/10/1
f 5/13/1 2/8/1 6/7/1
f 5/13/1 3/14/1 2/8/1
f 5/13/1 4/15/1 3/14/1
f 19/16/1 17/17/1 16/18/1
f 19/16/1 18/19/1 17/17/1
f 43/20/1 33/21/1 45/22/1 44/23/1
f 28/24/1 30/25/1 29/26/1
f 28/24/1 20/27/1 30/25/1
f 28/24/1 21/28/1 20/27/1
f 28/24/1 22/29/1 21/28/1
f 27/30/1 22/29/1 28/24/1
f 26/31/1 22/29/1 27/30/1
f 25/32/1 23/33/1 26/31/1
f 23/33/1 22/29/1 26/31/1
f 25/32/1 24/34/1 23/33/1
f 101/22/2 89/21/2 99/20/2 100/23/2
f 41/35/1 43/20/1 42/36/1
f 41/35/1 33/21/1 43/20/1
f 41/35/1 34/37/1 33/21/1
f 41/35/1 35/38/1 34/37/1
f 40/39/1 35/38/1 41/35/1
f 39/40/2 35/38/2 40/39/2
f 38/41/1 36/42/1 39/40/1
f 36/42/1 35/38/1 39/40/1
f 38/41/1 37/43/1 36/42/1
f 52/44/1 50/45/1 49/46/1
f 52/44/1 51/47/1 50/45/1
f 46/48/1 48/49/1 47/50/1
f 56/51/1 54/52/1 53/53/1
f 56/51/1 55/54/1 54/52/1
f 63/1/2 64/3/2 65/2/2
f 63/1/2 65/2/2 57/4/2
f 57/4/2 65/2/2 71/5/2
f 71/5/2 65/2/2 66/6/2
f 6/7/1 2/8/1 1/4/1 7/1/1
f 14/10/1 11/12/1 10/6/1 15/5/1
f 68/9/2 69/11/2 70/10/2
f 68/9/2 70/10/2 67/12/2
f 61/13/2 62/7/2 58/8/2
f 61/13/2 58/8/2 59/14/2
f 61/13/2 59/14/2 60/15/2
f 75/16/2 72/18/2 73/17/2
f 75/16/2 73/17/2 74/19/2
f 30/25/1 20/27/1 32/55/1 31/56/1
f 84/24/2 85/26/2 86/25/2
f 84/24/2 86/25/2 76/27/2
f 84/24/2 76/27/2 77/28/2
f 84/24/2 77/28/2 78/29/2
f 83/30/1 84/24/1 78/29/1
f 82/31/1 83/30/1 78/29/1
f 81/32/2 82/31/2 79/33/2
f 79/33/1 82/31/1 78/29/1
f 81/32/2 79/33/2 80/34/2
f 66/6/2 67/12/2 70/10/2 71/5/2
f 97/35/2 98/36/2 99/20/2
f 97/35/2 99/20/2 89/21/2
f 97/35/2 89/21/2 90/37/2
f 97/35/2 90/37/2 91/38/2
f 96/39/2 97/35/2 91/38/2
f 95/40/1 96/39/1 91/38/1
f 94/41/2 95/40/2 92/42/2
f 92/42/1 95/40/1 91/38/1
f 94/41/2 92/42/2 93/43/2
f 108/44/2 105/46/2 106/45/2
f 108/44/2 106/45/2 107/47/2
f 102/48/2 103/50/2 104/49/2
f 112/51/2 109/53/2 110/52/2
f 112/51/2 110/52/2 111/54/2
s 1
f 114/57/3 116/58/4 115/59/4 113/60/3
f 116/61/4 118/62/5 117/63/5 115/64/4
f 118/58/5 120/57/6 119/60/6 117/59/5
f 120/65/6 114/61/3 113/64/3 119/66/6
f 122/67/7 124/68/8 123/69/8 121/70/7
f 124/68/8 126/67/4 125/70/4 123/69/8
f 126/61/4 122/71/7 121/72/7 125/64/4
f 128/68/3 130/67/4 129/70/4 127/69/3
f 130/73/4 132/62/7 131/63/7 129/74/4
f 132/67/7 134/68/9 133/69/9 131/70/7
f 134/65/9 128/73/3 127/74/3 133/66/9
f 136/75/4 138/76/10 137/77/10 135/78/4
f 138/73/10 140/79/11 139/80/11 137/74/10
f 140/81/11 142/75/12 141/78/12 139/82/11
f 142/79/12 144/62/7 143/63/7 141/80/12
f 144/75/7 146/83/9 145/84/9 143/78/7
f 146/65/9 148/79/13 147/80/13 145/66/9
f 148/83/13 150/85/14 149/86/14 147/84/13
f 150/85/14 152/87/15 151/88/15 149/86/14
f 152/79/15 154/73/8 153/74/8 151/80/15
f 154/89/8 156/83/3 155/84/3 153/90/8
f 156/73/3 158/61/3 157/64/3 155/74/3
f 158/83/3 160/75/4 159/78/4 157/84/3
f 160/61/4 136/73/4 135/74/4 159/64/4
f 162/91/4 164/92/10 163/93/10 161/94/4
f 164/92/10 166/95/11 165/96/11 163/93/10
f 166/95/11 168/91/12 167/94/12 165/96/11
f 168/79/12 170/62/7 169/63/7 167/80/12
f 170/91/7 172/97/9 171/98/9 169/94/7
f 172/65/9 174/79/13 173/80/13 171/66/9
f 174/97/13 176/99/14 175/100/14 173/98/13
f 176/99/14 178/101/15 177/102/15 175/100/14
f 178/101/15 180/81/8 179/82/8 177/102/15
f 180/81/8 182/97/3 181/98/3 179/82/8
f 182/73/3 184/61/3 183/64/3 181/74/3
f 184/97/3 186/91/4 185/94/4 183/98/3
f 186/61/4 162/73/4 161/74/4 185/64/4
f 188/103/3 190/104/4 189/105/4 187/106/3
f 190/61/4 192/62/5 191/63/5 189/64/4
f 192/104/5 194/103/6 193/106/6 191/105/5
f 194/65/6 188/61/3 187/64/3 193/66/6
f 196/107/12 198/108/4 197/109/4 195/110/12
f 198/111/4 200/112/10 199/113/10 197/114/4
f 200/112/10 202/115/11 201/116/11 199/113/10
f 202/115/11 204/117/16 203/118/16 201/116/11
f 204/119/16 206/120/17 205/121/17 203/122/16
f 206/120/17 208/123/18 207/124/18 205/121/17
f 208/123/18 210/125/19 209/126/19 207/124/18
f 210/117/19 212/127/20 211/128/20 209/118/19
f 212/125/20 214/123/21 213/124/21 211/126/20
f 214/123/21 216/129/22 215/130/22 213/124/21
f 216/129/22 218/131/23 217/132/23 215/130/22
f 218/131/23 220/129/8 219/130/8 217/132/23
f 220/133/8 222/134/3 221/135/3 219/136/8
f 222/129/3 224/107/13 223/110/13 221/130/3
f 224/134/13 196/111/12 195/114/12 223/135/13
s 0
f 88/55/2 76/27/2 86/25/2 87/56/2
